<svg id="Layer_1" data-name="Layer 1" xmlns="http://www.w3.org/2000/svg" viewBox="0 0 1040.8608 1095.6178"><defs><style>.cls-1{fill:#c04d00;}</style></defs><polygon class="cls-1" points="199.594 299.499 466.65 145.696 431.961 205.554 437.095 214.47 430.817 237.819 297.258 314.738 273.891 308.462 268.756 299.547 199.594 299.499"/><polygon class="cls-1" points="174.77 376.487 199.527 333.728 248.955 333.762 273.595 376.545 392.104 445.081 441.521 445.094 466.172 487.898 441.394 530.669 391.966 530.635 367.314 487.831 248.817 419.316 199.409 419.27 174.77 376.487"/><polygon class="cls-1" points="471.533 205.575 496.269 162.828 545.719 162.85 570.358 205.633 545.56 248.416 545.352 385.295 570.003 428.1 545.267 470.846 495.838 470.813 471.187 428.009 495.976 385.259 496.173 248.358 471.533 205.575"/><polygon class="cls-1" points="145.063 393.596 179.555 453.489 189.861 453.518 206.942 470.614 206.71 624.602 189.561 641.734 179.276 641.694 144.631 701.581 145.063 393.596"/><polygon class="cls-1" points="575.364 145.777 842.03 299.934 772.824 299.858 767.697 308.774 744.272 315.009 610.945 237.941 604.751 214.574 609.857 205.669 575.364 145.777"/><polygon class="cls-1" points="648.954 530.795 599.513 530.741 574.874 487.957 599.651 445.187 649.039 445.244 767.744 376.88 792.542 334.097 841.93 334.155 866.569 376.938 841.845 419.706 792.384 419.663 673.678 488.028 648.954 530.795"/><polygon class="cls-1" points="441.209 650.44 391.769 650.385 273.063 718.75 248.298 761.541 198.878 761.475 174.238 718.692 198.995 675.933 248.424 675.967 367.129 607.602 391.907 564.831 441.315 564.877 465.954 607.66 441.209 650.44"/><polygon class="cls-1" points="296.556 780.608 429.862 857.689 436.101 881.085 430.942 889.993 465.435 949.886 198.831 795.692 267.993 795.739 273.155 786.885 296.556 780.608"/><polygon class="cls-1" points="599.34 650.533 574.701 607.749 599.466 564.958 648.866 565.036 673.505 607.82 792.002 676.334 841.452 676.356 866.091 719.14 841.293 761.922 791.905 761.865 767.266 719.081 648.769 650.566 599.34 650.533"/><polygon class="cls-1" points="569.328 890.052 544.55 932.822 495.142 932.777 470.503 889.993 495.259 847.234 495.468 710.355 470.828 667.571 495.594 624.78 545.035 624.834 569.674 667.618 544.897 710.389 544.688 847.268 569.328 890.052"/><polygon class="cls-1" points="833.865 625.016 834.118 471.016 851.291 453.925 861.54 453.903 896.23 394.046 895.736 702.066 861.243 642.173 850.991 642.142 833.865 625.016"/><polygon class="cls-1" points="574.178 949.921 608.847 890.076 603.724 881.181 610.023 857.819 743.582 780.9 766.929 787.188 772.051 796.083 841.234 796.118 574.178 949.921"/><path class="cls-1" d="M778.2716,892.4119h-7.88v-2.8442h19.18v2.8442H781.654v23.0625h-3.3824Z"/><path class="cls-1" d="M814.29,904.097c-.1924-3.6133-.4229-7.9565-.3843-11.1851h-.1152c-.8843,3.0367-1.9605,6.2652-3.2676,9.84l-4.5737,12.5688h-2.5371l-4.1895-12.3383c-1.23-3.6514-2.2676-6.9956-2.998-10.07h-.0767c-.0772,3.2286-.2691,7.5718-.5,11.4541l-.6919,11.1084h-3.19l1.8061-25.9067h4.2666l4.42,12.5308c1.0762,3.19,1.9605,6.0341,2.6138,8.7251h.1152c.6533-2.6138,1.5757-5.458,2.729-8.7251l4.6123-12.5308h4.2666l1.6143,25.9067h-3.2671Z"/></svg>